<svg width="63" height="63" viewBox="0 0 63 63" fill="none" xmlns="http://www.w3.org/2000/svg">
<path d="M47.04 30.5025C46.9151 30.1803 46.7277 29.8859 46.4887 29.6362L33.3637 16.5112C33.119 16.2665 32.8284 16.0724 32.5087 15.9399C32.1889 15.8074 31.8461 15.7393 31.5 15.7393C30.801 15.7393 30.1305 16.017 29.6362 16.5112C29.3915 16.756 29.1973 17.0466 29.0649 17.3663C28.9324 17.6861 28.8643 18.0289 28.8643 18.375C28.8643 19.074 29.142 19.7445 29.6362 20.2387L38.2987 28.875H18.375C17.6788 28.875 17.0111 29.1516 16.5188 29.6438C16.0266 30.1361 15.75 30.8038 15.75 31.5C15.75 32.1962 16.0266 32.8639 16.5188 33.3562C17.0111 33.8484 17.6788 34.125 18.375 34.125H38.2987L29.6362 42.7612C29.3902 43.0053 29.1949 43.2956 29.0617 43.6155C28.9284 43.9354 28.8598 44.2785 28.8598 44.625C28.8598 44.9715 28.9284 45.3146 29.0617 45.6345C29.1949 45.9544 29.3902 46.2447 29.6362 46.4887C29.8803 46.7348 30.1706 46.9301 30.4905 47.0633C30.8104 47.1966 31.1535 47.2652 31.5 47.2652C31.8465 47.2652 32.1896 47.1966 32.5095 47.0633C32.8294 46.9301 33.1197 46.7348 33.3637 46.4887L46.4887 33.3637C46.7277 33.1141 46.9151 32.8197 47.04 32.4975C47.3025 31.8584 47.3025 31.1416 47.04 30.5025Z" fill="#EDF2F7"/>
</svg>
