<?xml version="1.0" encoding="UTF-8" standalone="no"?>
<!DOCTYPE svg PUBLIC "-//W3C//DTD SVG 1.1//EN" "http://www.w3.org/Graphics/SVG/1.1/DTD/svg11.dtd">
<svg width="100%" height="100%" viewBox="0 0 60 60" version="1.1" xmlns="http://www.w3.org/2000/svg" xmlns:xlink="http://www.w3.org/1999/xlink" xml:space="preserve" xmlns:serif="http://www.serif.com/" style="fill-rule:evenodd;clip-rule:evenodd;stroke-linejoin:round;stroke-miterlimit:2;">
    <g transform="matrix(1,0,0,1,-4,0)">
        <path d="M64,15C64,6.721 57.279,0 49,0L19,0C10.721,0 4,6.721 4,15L4,45C4,53.279 10.721,60 19,60L49,60C57.279,60 64,53.279 64,45L64,15Z" style="fill:rgb(144,205,244);"/>
        <path d="M38.25,28.612L30.75,28.612C29.755,28.612 28.802,28.217 28.098,27.514C27.395,26.811 27,25.857 27,24.862C27,23.868 27.395,22.914 28.098,22.211C28.802,21.507 29.755,21.112 30.75,21.112L40.125,21.112C40.622,21.112 41.099,21.31 41.451,21.661C41.803,22.013 42,22.49 42,22.987C42,23.484 42.198,23.961 42.549,24.313C42.901,24.665 43.378,24.862 43.875,24.862C44.372,24.862 44.849,24.665 45.201,24.313C45.553,23.961 45.75,23.484 45.75,22.987C45.75,21.495 45.157,20.065 44.103,19.01C43.048,17.955 41.617,17.362 40.125,17.362L36.375,17.362L36.375,13.612C36.375,13.115 36.178,12.638 35.826,12.286C35.474,11.935 34.997,11.737 34.5,11.737C34.003,11.737 33.526,11.935 33.174,12.286C32.823,12.638 32.625,13.115 32.625,13.612L32.625,17.362L30.75,17.362C28.761,17.362 26.853,18.152 25.447,19.559C24.04,20.965 23.25,22.873 23.25,24.862C23.25,26.851 24.04,28.759 25.447,30.165C26.853,31.572 28.761,32.362 30.75,32.362L38.25,32.362C39.245,32.362 40.198,32.757 40.902,33.461C41.605,34.164 42,35.118 42,36.112C42,37.107 41.605,38.061 40.902,38.764C40.198,39.467 39.245,39.862 38.25,39.862L28.875,39.862C28.378,39.862 27.901,39.665 27.549,39.313C27.198,38.961 27,38.484 27,37.987C27,37.49 26.802,37.013 26.451,36.661C26.099,36.31 25.622,36.112 25.125,36.112C24.628,36.112 24.151,36.31 23.799,36.661C23.448,37.013 23.25,37.49 23.25,37.987C23.25,39.479 23.843,40.91 24.898,41.965C25.952,43.02 27.383,43.612 28.875,43.612L32.625,43.612L32.625,47.362C32.625,47.859 32.823,48.336 33.174,48.688C33.526,49.04 34.003,49.237 34.5,49.237C34.997,49.237 35.474,49.04 35.826,48.688C36.178,48.336 36.375,47.859 36.375,47.362L36.375,43.612L38.25,43.612C40.239,43.612 42.147,42.822 43.553,41.415C44.96,40.009 45.75,38.101 45.75,36.112C45.75,34.123 44.96,32.215 43.553,30.809C42.147,29.402 40.239,28.612 38.25,28.612Z" style="fill:rgb(237,242,247);fill-rule:nonzero;"/>
    </g>
</svg>
