<svg width="64" height="69" viewBox="0 0 64 69" fill="none" xmlns="http://www.w3.org/2000/svg">
<g filter="url(#filter0_d_0_1)">
<rect y="0.0128632" width="60" height="60" rx="15" fill="#8FD2FF"/>
</g>
<path d="M34.25 28.625H26.75C25.7554 28.625 24.8016 28.2299 24.0984 27.5267C23.3951 26.8234 23 25.8696 23 24.875C23 23.8804 23.3951 22.9266 24.0984 22.2234C24.8016 21.5201 25.7554 21.125 26.75 21.125H36.125C36.6223 21.125 37.0992 21.3225 37.4508 21.6742C37.8025 22.0258 38 22.5027 38 23C38 23.4973 38.1975 23.9742 38.5492 24.3258C38.9008 24.6775 39.3777 24.875 39.875 24.875C40.3723 24.875 40.8492 24.6775 41.2008 24.3258C41.5525 23.9742 41.75 23.4973 41.75 23C41.75 21.5082 41.1574 20.0774 40.1025 19.0225C39.0476 17.9676 37.6168 17.375 36.125 17.375H32.375V13.625C32.375 13.1277 32.1775 12.6508 31.8258 12.2992C31.4742 11.9475 30.9973 11.75 30.5 11.75C30.0027 11.75 29.5258 11.9475 29.1742 12.2992C28.8225 12.6508 28.625 13.1277 28.625 13.625V17.375H26.75C24.7609 17.375 22.8532 18.1652 21.4467 19.5717C20.0402 20.9782 19.25 22.8859 19.25 24.875C19.25 26.8641 20.0402 28.7718 21.4467 30.1783C22.8532 31.5848 24.7609 32.375 26.75 32.375H34.25C35.2446 32.375 36.1984 32.7701 36.9016 33.4734C37.6049 34.1766 38 35.1304 38 36.125C38 37.1196 37.6049 38.0734 36.9016 38.7767C36.1984 39.4799 35.2446 39.875 34.25 39.875H24.875C24.3777 39.875 23.9008 39.6775 23.5492 39.3258C23.1975 38.9742 23 38.4973 23 38C23 37.5027 22.8025 37.0258 22.4508 36.6742C22.0992 36.3225 21.6223 36.125 21.125 36.125C20.6277 36.125 20.1508 36.3225 19.7992 36.6742C19.4475 37.0258 19.25 37.5027 19.25 38C19.25 39.4918 19.8426 40.9226 20.8975 41.9775C21.9524 43.0324 23.3832 43.625 24.875 43.625H28.625V47.375C28.625 47.8723 28.8225 48.3492 29.1742 48.7008C29.5258 49.0525 30.0027 49.25 30.5 49.25C30.9973 49.25 31.4742 49.0525 31.8258 48.7008C32.1775 48.3492 32.375 47.8723 32.375 47.375V43.625H34.25C36.2391 43.625 38.1468 42.8348 39.5533 41.4283C40.9598 40.0218 41.75 38.1141 41.75 36.125C41.75 34.1359 40.9598 32.2282 39.5533 30.8217C38.1468 29.4152 36.2391 28.625 34.25 28.625Z" fill="#EDF2F7"/>
<defs>
<filter id="filter0_d_0_1" x="-4" y="0.0128632" width="68" height="68" filterUnits="userSpaceOnUse" color-interpolation-filters="sRGB">
<feFlood flood-opacity="0" result="BackgroundImageFix"/>
<feColorMatrix in="SourceAlpha" type="matrix" values="0 0 0 0 0 0 0 0 0 0 0 0 0 0 0 0 0 0 127 0" result="hardAlpha"/>
<feOffset dy="4"/>
<feGaussianBlur stdDeviation="2"/>
<feComposite in2="hardAlpha" operator="out"/>
<feColorMatrix type="matrix" values="0 0 0 0 0 0 0 0 0 0 0 0 0 0 0 0 0 0 0.25 0"/>
<feBlend mode="normal" in2="BackgroundImageFix" result="effect1_dropShadow_0_1"/>
<feBlend mode="normal" in="SourceGraphic" in2="effect1_dropShadow_0_1" result="shape"/>
</filter>
</defs>
</svg>
