<?xml version="1.0" encoding="UTF-8" standalone="no"?>
<!DOCTYPE svg PUBLIC "-//W3C//DTD SVG 1.1//EN" "http://www.w3.org/Graphics/SVG/1.1/DTD/svg11.dtd">
<svg width="100%" height="100%" viewBox="0 0 32 32" version="1.1" xmlns="http://www.w3.org/2000/svg" xmlns:xlink="http://www.w3.org/1999/xlink" xml:space="preserve" xmlns:serif="http://www.serif.com/" style="fill-rule:evenodd;clip-rule:evenodd;stroke-linejoin:round;stroke-miterlimit:2;">
    <g transform="matrix(1,0,0,1,-15.75,-15.7393)">
        <path d="M47.04,30.503C46.915,30.18 46.728,29.886 46.489,29.636L33.364,16.511C33.119,16.267 32.828,16.072 32.509,15.94C32.189,15.807 31.846,15.739 31.5,15.739C30.801,15.739 30.131,16.017 29.636,16.511C29.392,16.756 29.197,17.047 29.065,17.366C28.932,17.686 28.864,18.029 28.864,18.375C28.864,19.074 29.142,19.745 29.636,20.239L38.299,28.875L18.375,28.875C17.679,28.875 17.011,29.152 16.519,29.644C16.027,30.136 15.75,30.804 15.75,31.5C15.75,32.196 16.027,32.864 16.519,33.356C17.011,33.848 17.679,34.125 18.375,34.125L38.299,34.125L29.636,42.761C29.39,43.005 29.195,43.296 29.062,43.616C28.928,43.935 28.86,44.279 28.86,44.625C28.86,44.972 28.928,45.315 29.062,45.635C29.195,45.954 29.39,46.245 29.636,46.489C29.88,46.735 30.171,46.93 30.491,47.063C30.81,47.197 31.154,47.265 31.5,47.265C31.847,47.265 32.19,47.197 32.51,47.063C32.829,46.93 33.12,46.735 33.364,46.489L46.489,33.364C46.728,33.114 46.915,32.82 47.04,32.498C47.303,31.858 47.303,31.142 47.04,30.503Z" style="fill:rgb(237,242,247);fill-rule:nonzero;"/>
    </g>
</svg>
